<?xml version="1.0" encoding="utf-8"?>
<!-- Generator: Adobe Illustrator 15.0.0, SVG Export Plug-In . SVG Version: 6.00 Build 0)  -->
<!DOCTYPE svg PUBLIC "-//W3C//DTD SVG 1.1//EN" "http://www.w3.org/Graphics/SVG/1.1/DTD/svg11.dtd">
<svg version="1.1" id="Capa_1" xmlns="http://www.w3.org/2000/svg" xmlns:xlink="http://www.w3.org/1999/xlink" x="0px" y="0px"
	 width="841.889px" height="595.281px" viewBox="0 0 841.889 595.281" enable-background="new 0 0 841.889 595.281"
	 xml:space="preserve">
<g id="draft" transform="matrix(1 0 0 -1 0 0)">
	<g id="RM_x5F__x23_36_x5F_">
		<path id="ID_862C8" fill="none" stroke="#000000" stroke-width="0.0283" d="M408.081-106.605h4.113v-4.113h-4.113V-106.605z"/>
		<path id="ID_862C9" fill="none" stroke="#000000" stroke-width="0.0283" d="M414.235-106.605h4.113v-4.113h-4.113V-106.605z"/>
		<path id="ID_862CA" fill="none" stroke="#000000" stroke-width="0.0283" d="M487.059-106.605h4.113v-4.113h-4.113V-106.605z"/>
		<path id="ID_862CB" fill="none" stroke="#000000" stroke-width="0.0283" d="M408.081-165.839h4.113v-4.113h-4.113V-165.839z"/>
		<path id="ID_862CC" fill="none" stroke="#000000" stroke-width="0.0283" d="M414.868-166.456h2.879v-2.879h-2.879V-166.456z"/>
		<path id="ID_862CD" fill="none" stroke="#000000" stroke-width="0.0283" d="M487.059-165.839h4.113v-4.113h-4.113V-165.839z"/>
		<path id="ID_862CE" fill="none" stroke="#000000" stroke-width="0.0283" d="M533.746-166.456h2.879v-2.879h-2.879V-166.456z"/>
		<path id="ID_862CF" fill="none" stroke="#000000" stroke-width="0.0283" d="M574.88-166.456h2.88v-2.879h-2.88V-166.456z"/>
		<path id="ID_862D0" fill="none" stroke="#000000" stroke-width="0.0283" d="M615.398-165.839h4.113v-4.113h-4.113V-165.839z"/>
		<path id="ID_862D1" fill="none" stroke="#000000" stroke-width="0.0283" d="M615.398-225.072h4.113v-4.113h-4.113V-225.072z"/>
		<path id="ID_862D2" fill="none" stroke="#000000" stroke-width="0.0283" d="M615.4-229.267h4.111v-3.291H615.4V-229.267z"/>
		<path id="ID_862D3" fill="none" stroke="#000000" stroke-width="0.0283" d="M574.88-225.689h2.88v-2.879h-2.88V-225.689z"/>
		<path id="ID_862D4" fill="none" stroke="#000000" stroke-width="0.0283" d="M533.746-225.689h2.879v-2.879h-2.879V-225.689z"/>
		<path id="ID_862D5" fill="none" stroke="#000000" stroke-width="0.0283" d="M561.624-266.185h4.113v-4.113h-4.113V-266.185z"/>
		<path id="ID_862D6" fill="none" stroke="#000000" stroke-width="0.0283" d="M574.88-284.923h2.88v-2.879h-2.88V-284.923z"/>
		<path id="ID_862D7" fill="none" stroke="#000000" stroke-width="0.0283" d="M533.746-284.923h2.879v-2.879h-2.879V-284.923z"/>
		<path id="ID_862D8" fill="none" stroke="#000000" stroke-width="0.0283" d="M533.746-326.056h2.879v-2.88h-2.879V-326.056z"/>
		<path id="ID_862D9" fill="none" stroke="#000000" stroke-width="0.0283" d="M487.059-343.539h4.113v-4.113h-4.113V-343.539z"/>
		<path id="ID_862DA" fill="none" stroke="#000000" stroke-width="0.0283" d="M408.081-343.539h4.113v-4.113h-4.113V-343.539z"/>
		<path id="ID_862DB" fill="none" stroke="#000000" stroke-width="0.0283" d="M414.868-344.156h2.879v-2.879h-2.879V-344.156z"/>
		<path id="ID_862DC" fill="none" stroke="#000000" stroke-width="0.0283" d="M359.337-344.156h2.879v-2.879h-2.879V-344.156z"/>
		<path id="ID_862DD" fill="none" stroke="#000000" stroke-width="0.0283" d="M279.742-343.539h4.113v-4.113h-4.113V-343.539z"/>
		<path id="ID_862DE" fill="none" stroke="#000000" stroke-width="0.0283" d="M319.848-344.156h2.88v-2.879h-2.88V-344.156z"/>
		<path id="ID_862DF" fill="none" stroke="#000000" stroke-width="0.0283" d="M319.276-368.661h4.093v-4.093h-4.093V-368.661z"/>
		<path id="ID_862E0" fill="none" stroke="#000000" stroke-width="0.0283" d="M220.698-307.958h2.879v-2.879h-2.879V-307.958z"/>
		<path id="ID_862E1" fill="none" stroke="#000000" stroke-width="0.0283" d="M220.698-265.177h2.879v-2.88h-2.879V-265.177z"/>
		<path id="ID_862E2" fill="none" stroke="#000000" stroke-width="0.0283" d="M196.669-247.433h2.469v-6.746h-2.469V-247.433z"/>
		<path id="ID_862E3" fill="none" stroke="#000000" stroke-width="0.0283" d="M533.746-107.222h2.879v-2.88h-2.879V-107.222z"/>
		<path id="ID_862EA" fill="none" stroke="#000000" stroke-width="0.0283" d="M574.88-107.23h2.88v-2.88h-2.88V-107.23z"/>
		<path id="ID_862EB" fill="none" stroke="#000000" stroke-width="0.0283" d="M615.398-106.614h4.113v-4.113h-4.113V-106.614z"/>
		<path id="ID_862EC" fill="none" stroke="#000000" stroke-width="0.0283" d="M657.173-107.222h2.88v-2.88h-2.88V-107.222z"/>
		<path id="ID_862ED" fill="none" stroke="#000000" stroke-width="0.0283" d="M614.987-46.961h4.936v-4.937h-4.936V-46.961z"/>
		<path id="ID_862EE" fill="none" stroke="#000000" stroke-width="0.0283" d="M533.746-47.989h2.879v-2.88h-2.879V-47.989z"/>
		<path id="ID_862EF" fill="none" stroke="#000000" stroke-width="0.0283" d="M574.88-48.018h2.88v-2.88h-2.88V-48.018z"/>
		<path id="ID_862F0" fill="none" stroke="#000000" stroke-width="0.0283" d="M486.648-46.961h4.936v-4.937h-4.936V-46.961z"/>
		<path id="ID_862F1" fill="none" stroke="#000000" stroke-width="0.0283" d="M414.251-47.372h4.113v-4.113h-4.113V-47.372z"/>
		<path id="ID_862F2" fill="none" stroke="#000000" stroke-width="0.0283" d="M408.081-47.372h4.113v-4.113h-4.113V-47.372z"/>
		<path id="ID_862F3" fill="none" stroke="#000000" stroke-width="0.0283" d="M359.337-47.989h2.879v-2.88h-2.879V-47.989z"/>
		<path id="ID_862F4" fill="none" stroke="#000000" stroke-width="0.0283" d="M319.848-47.989h2.88v-2.88h-2.88V-47.989z"/>
		<path id="ID_862F5" fill="none" stroke="#000000" stroke-width="0.0283" d="M279.742-47.372h4.113v-4.113h-4.113V-47.372z"/>
		<path id="ID_862F6" fill="none" stroke="#000000" stroke-width="0.0283" d="M657.149-166.456h2.88v-2.879h-2.88V-166.456z"/>
		<path id="ID_862F7" fill="none" stroke="#000000" stroke-width="0.0283" d="M657.149-225.689h2.88v-2.879h-2.88V-225.689z"/>
		<path id="ID_862F8" fill="none" stroke="#000000" stroke-width="0.0283" d="M657.149-245.433h2.88v-2.88h-2.88V-245.433z"/>
		<path id="ID_862F9" fill="none" stroke="#000000" stroke-width="0.0283" d="M615.4-280.932h4.111v-3.291H615.4V-280.932z"/>
		<path id="ID_862FA" fill="none" stroke="#000000" stroke-width="0.0283" d="M615.398-284.305h4.113v-4.113h-4.113V-284.305z"/>
		<path id="ID_862FB" fill="none" stroke="#000000" stroke-width="0.0283" d="M615.398-317.27h4.113v-4.113h-4.113V-317.27z"/>
		<path id="ID_862FC" fill="none" stroke="#000000" stroke-width="0.0283" d="M574.88-326.056h2.88v-2.88h-2.88V-326.056z"/>
		<path id="ID_862FD" fill="none" stroke="#000000" stroke-width="0.0283" d="M447.615-364.835h4.093v-4.094h-4.093V-364.835z"/>
		<path id="ID_862FE" fill="none" stroke="#000000" stroke-width="0.0283" d="M279.742-225.072h4.113v-4.113h-4.113V-225.072z"/>
		<path id="ID_862FF" fill="none" stroke="#000000" stroke-width="0.0283" d="M319.848-225.689h2.88v-2.879h-2.88V-225.689z"/>
		<path id="ID_86300" fill="none" stroke="#000000" stroke-width="0.0283" d="M359.337-225.689h2.879v-2.879h-2.879V-225.689z"/>
		<path id="ID_86301" fill="none" stroke="#000000" stroke-width="0.0283" d="M279.742-165.839h4.113v-4.113h-4.113V-165.839z"/>
		<path id="ID_86302" fill="none" stroke="#000000" stroke-width="0.0283" d="M319.848-166.456h2.88v-2.879h-2.88V-166.456z"/>
		<path id="ID_86303" fill="none" stroke="#000000" stroke-width="0.0283" d="M359.337-166.456h2.879v-2.879h-2.879V-166.456z"/>
		<path id="ID_86304" fill="none" stroke="#000000" stroke-width="0.0283" d="M319.848-107.222h2.88v-2.88h-2.88V-107.222z"/>
		<path id="ID_86305" fill="none" stroke="#000000" stroke-width="0.0283" d="M279.742-106.605h4.113v-4.113h-4.113V-106.605z"/>
		<path id="ID_86306" fill="none" stroke="#000000" stroke-width="0.0283" d="M220.698-115.449h2.879v-2.88h-2.879V-115.449z"/>
		<path id="ID_86307" fill="none" stroke="#000000" stroke-width="0.0283" d="M220.69-71.852h2.88v-2.879h-2.88V-71.852z"/>
		<path id="ID_86308" fill="none" stroke="#000000" stroke-width="0.0283" d="M220.698-11.791h2.879v-2.88h-2.879V-11.791z"/>
		<path id="ID_86309" fill="none" stroke="#000000" stroke-width="0.0283" d="M108.772,13.512h4.114V9.399h-4.114V13.512z"/>
		<path id="ID_8630A" fill="none" stroke="#000000" stroke-width="0.0283" d="M177.918,13.506h4.114V9.393h-4.114V13.506z"/>
		<path id="ID_8630B" fill="none" stroke="#000000" stroke-width="0.0283" d="M178.676-26.8h2.468v-2.468h-2.468V-26.8z"/>
		<path id="ID_8630C" fill="none" stroke="#000000" stroke-width="0.0283" d="M109.571-26.8h2.468v-2.468h-2.468V-26.8z"/>
		<path id="ID_8630D" fill="none" stroke="#000000" stroke-width="0.0283" d="M220.698-179.619h2.879v-2.879h-2.879V-179.619z"/>
		<path id="ID_8630E" fill="none" stroke="#000000" stroke-width="0.0283" d="M220.698-222.398h2.879v-2.879h-2.879V-222.398z"/>
		<path id="ID_8630F" fill="none" stroke="#000000" stroke-width="0.0283" d="M279.742-402.772h4.113v-4.113h-4.113V-402.772z"/>
		<path id="ID_86311" fill="none" stroke="#000000" stroke-width="0.0283" d="M408.081-10.792h41.751v-18.51h-41.751V-10.792z"/>
		<path id="ID_86312" fill="none" stroke="#000000" stroke-width="0.0283" d="M449.832-10.792h41.751v-18.51h-41.751V-10.792z"/>
		<path id="ID_86313" fill="none" stroke="#000000" stroke-width="0.0283" d="M533.746-10.792h41.134v-18.51h-41.134V-10.792z"/>
		<path id="ID_86314" fill="none" stroke="#000000" stroke-width="0.0283" d="M408.081-89.329h41.545v-19.128h-31.278v1.852h-4.113
			v-1.852h-2.04v1.852h-4.113V-89.329z"/>
		<path id="ID_86315" fill="none" stroke="#000000" stroke-width="0.0283" d="M413.654-249.173h16.456v-23.199h-16.456V-249.173z"/>
		<path id="ID_86316" fill="none" stroke="#000000" stroke-width="0.0283" d="M491.172-225.072h-4.113v-4.113h4.113V-225.072z"/>
		<path id="ID_86317" fill="none" stroke="#000000" stroke-width="0.0283" d="M408.081-229.185h4.113v4.113h-4.113V-229.185z"/>
		<path id="ID_86318" fill="none" stroke="#000000" stroke-width="0.0283" d="M319.848-284.923h2.88v-2.879h-2.88V-284.923z"/>
		<path id="ID_86319" fill="none" stroke="#000000" stroke-width="0.0283" d="M279.742-284.305h4.113v-4.113h-4.113V-284.305z"/>
		<path id="ID_8631A" fill="none" stroke="#000000" stroke-width="0.0283" d="M359.337-284.923h2.879v-2.879h-2.879V-284.923z"/>
		<path id="ID_8631B" fill="none" stroke="#000000" stroke-width="0.0283" d="M359.337-107.222h2.879v-2.88h-2.879V-107.222z"/>
		<path id="ID_8631C" fill="none" stroke="#000000" stroke-width="0.0283" d="M805.299-121.097l10.669,3.083l-0.667,2.309
			l1.191,0.344l10.27,2.968l4.221-14.607l-28.515-8.232l-0.229,0.79l-2.522,8.691l-0.794,2.813L805.299-121.097"/>
		<path id="ID_8631D" fill="none" stroke="#000000" stroke-width="0.0283" d="M533.746-89.329h42.882v-17.901h-1.748v-1.017h-20.567
			h-17.688v1.024h-2.879V-89.329z"/>
		<path id="ID_8631E" fill="none" stroke="#000000" stroke-width="0.0283" d="M533.746-110.102h2.879v1.855h38.255v-1.863h1.748
			v-5.871v-12.417h-42.882V-110.102z"/>
		<path id="ID_8631F" fill="none" stroke="#000000" stroke-width="0.0283" d="M533.746-128.398h42.882v-19.745h-42.882V-128.398z"/>
		<path id="ID_86320" fill="none" stroke="#000000" stroke-width="0.0283" d="M533.746-148.143h42.882v-18.312h-1.748v-1.432
			h-38.255v1.432h-2.879V-148.143z"/>
		<path id="ID_86321" fill="none" stroke="#000000" stroke-width="0.0283" d="M533.746-169.335h2.879v1.447h38.255v-1.447h1.748
			v-18.297h-42.882V-169.335z"/>
		<path id="ID_86322" fill="none" stroke="#000000" stroke-width="0.0283" d="M533.746-187.632h42.882v-19.744h-42.882V-187.632z"/>
		<path id="ID_86323" fill="none" stroke="#000000" stroke-width="0.0283" d="M576.628-188.043h42.883v-19.745h-42.883V-188.043z"/>
		<path id="ID_86324" fill="none" stroke="#000000" stroke-width="0.0283" d="M279.742-89.329h41.237v-17.894h-1.132v-1.439h-35.992
			v2.057h-4.113V-89.329z"/>
		<path id="ID_86325" fill="none" stroke="#000000" stroke-width="0.0283" d="M279.742-110.719h4.113v2.057h35.992v-1.44h1.132
			v-19.127h-41.237V-110.719z"/>
		<path id="ID_86326" fill="none" stroke="#000000" stroke-width="0.0283" d="M279.742-129.229h41.237v-19.744h-41.237V-129.229z"/>
		<path id="ID_86327" fill="none" stroke="#000000" stroke-width="0.0283" d="M279.742-148.973h41.237v-17.482h-1.132v-1.849
			h-35.992v2.466h-4.113V-148.973z"/>
		<path id="ID_86328" fill="none" stroke="#000000" stroke-width="0.0283" d="M279.742-169.952h4.113v1.647h35.992v-1.03h1.132
			v-18.3h-41.237V-169.952z"/>
		<path id="ID_86329" fill="none" stroke="#000000" stroke-width="0.0283" d="M279.742-187.635h41.237v-19.744h-41.237V-187.635z"/>
		<path id="ID_8632A" fill="none" stroke="#000000" stroke-width="0.0283" d="M279.742-207.379h41.237v-18.311h-1.132v-1.435
			h-35.992v2.052h-4.113V-207.379z"/>
		<path id="ID_8632B" fill="none" stroke="#000000" stroke-width="0.0283" d="M279.742-229.185h4.113v2.062h35.992v-1.444h1.132
			v-18.3h-41.237V-229.185z"/>
		<path id="ID_8632C" fill="none" stroke="#000000" stroke-width="0.0283" d="M279.742-246.868h41.237v-19.744h-41.237V-246.868z"/>
		<path id="ID_8632D" fill="none" stroke="#000000" stroke-width="0.0283" d="M279.742-266.612h41.237v-18.311h-1.132v-1.437
			h-35.992v2.054h-4.113V-266.612z"/>
		<path id="ID_8632E" fill="none" stroke="#000000" stroke-width="0.0283" d="M279.742-288.419h4.113v2.057l35.992,0.003v-1.442
			h1.132v-18.305h-41.237V-288.419z"/>
		<path id="ID_86333" fill="none" stroke="#000000" stroke-width="0.0283" d="M362.216-89.329H320.98v-17.894h1.748v-1.439h36.609
			v1.439h2.879V-89.329z"/>
		<path id="ID_86334" fill="none" stroke="#000000" stroke-width="0.0283" d="M362.216-110.102h-2.879v1.44h-36.609v-1.44h-1.748
			v-19.127h41.236V-110.102z"/>
		<path id="ID_86335" fill="none" stroke="#000000" stroke-width="0.0283" d="M362.216-129.229H320.98v-19.744h41.236V-129.229z"/>
		<path id="ID_86336" fill="none" stroke="#000000" stroke-width="0.0283" d="M362.216-148.973H320.98v-17.482h1.748v-1.849
			l36.628,0.001l-0.019,1.848h2.879V-148.973z"/>
		<path id="ID_86337" fill="none" stroke="#000000" stroke-width="0.0283" d="M362.216-169.335h-2.879v1.03h-36.609v-1.03h-1.748
			v-18.3h41.236V-169.335z"/>
		<path id="ID_86338" fill="none" stroke="#000000" stroke-width="0.0283" d="M362.216-187.635H320.98v-19.744h41.236V-187.635z"/>
		<path id="ID_86339" fill="none" stroke="#000000" stroke-width="0.0283" d="M362.216-207.379H320.98v-18.311h1.748v-1.435h36.609
			v1.435h2.879V-207.379z"/>
		<path id="ID_8633A" fill="none" stroke="#000000" stroke-width="0.0283" d="M362.216-228.568h-2.879v1.444h-36.609v-1.444h-1.748
			v-18.3h41.236V-228.568z"/>
		<path id="ID_8633B" fill="none" stroke="#000000" stroke-width="0.0283" d="M362.216-246.868H320.98v-19.744h41.236V-246.868z"/>
		<path id="ID_8633C" fill="none" stroke="#000000" stroke-width="0.0283" d="M362.216-266.612H320.98v-18.311h1.748v-1.437h36.609
			v1.437h2.879V-266.612z"/>
		<path id="ID_8633D" fill="none" stroke="#000000" stroke-width="0.0283" d="M362.216-287.802h-2.879v1.442l-36.609-0.003v-1.439
			h-1.748v-18.305h41.236V-287.802z"/>
		<path id="ID_86342" fill="none" stroke="#000000" stroke-width="0.0283" d="M408.081-128.818h41.545v20.361h-31.278v-2.262h-4.113
			v2.262h-2.04v-2.262h-4.113V-128.818z"/>
		<path id="ID_86343" fill="none" stroke="#000000" stroke-width="0.0283" d="M408.081-128.818h41.545v-19.744h-41.545V-128.818z"/>
		<path id="ID_86344" fill="none" stroke="#000000" stroke-width="0.0283" d="M408.081-148.562h41.545v-19.95h-31.879v2.057h-2.879
			v-2.057h-2.674v2.674h-4.113V-148.562z"/>
		<path id="ID_86351" fill="none" stroke="#000000" stroke-width="0.0283" d="M491.172-128.818h-41.546v-19.744h41.546V-128.818z"/>
		<path id="ID_86352" fill="none" stroke="#000000" stroke-width="0.0283" d="M408.081-189.697h41.545v-21.397h-41.545V-189.697z"/>
		<path id="ID_86353" fill="none" stroke="#000000" stroke-width="0.0283" d="M491.172-189.697h-41.546v-21.397h41.546V-189.697z"/>
		<path id="ID_8635B" fill="none" stroke="#000000" stroke-width="0.0283" d="M491.172-189.697h-41.546v21.398h6.727h6.624h24.082
			v-1.653h4.113V-189.697z"/>
		<path id="ID_8635F" fill="none" stroke="#000000" stroke-width="0.0283" d="M449.626-189.697v21.185h-31.879v-0.822h-2.879v0.822
			h-2.674v-1.439h-4.113v-19.745H449.626"/>
		<path id="ID_86360" fill="none" stroke="#000000" stroke-width="0.0283" d="M491.172-148.562h-41.546v-19.736h37.433v2.46h4.113
			V-148.562"/>
		<path id="ID_86361" fill="none" stroke="#000000" stroke-width="0.0283" d="M449.626-108.457h37.433v-2.262h4.113v-18.1h-41.546
			V-108.457"/>
		<path id="ID_86362" fill="none" stroke="#000000" stroke-width="0.0283" d="M449.626-89.329h41.546v-17.276h-4.113v-1.852h-37.433
			V-89.329"/>
		<path id="ID_86363" fill="none" stroke="#000000" stroke-width="0.0283" d="M408.081-47.372h4.113v-1.675h2.057v1.675h4.113
			v-1.675h31.468v19.745h-41.751V-47.372z"/>
		<path id="ID_86364" fill="none" stroke="#000000" stroke-width="0.0283" d="M449.832-47.812h36.815v0.852h4.936v17.659h-41.751
			V-47.812z"/>
		<path id="ID_86365" fill="none" stroke="#000000" stroke-width="0.0283" d="M491.583-10.792h-41.134V7.719h41.134V-10.792z"/>
		<path id="ID_86366" fill="none" stroke="#000000" stroke-width="0.0283" d="M574.88-10.792h-41.134V9.365h41.134V-10.792z"/>
		<path id="ID_86367" fill="none" stroke="#000000" stroke-width="0.0283" d="M619.872-10.762h23.438v-41.135h-23.388v4.937h-0.05
			V-10.762z"/>
		<path id="ID_86368" fill="none" stroke="#000000" stroke-width="0.0283" d="M240.299-73.241H223.57v-1.49h-2.88v1.49h-21.524
			v-21.856h41.134V-73.241z"/>
		<path id="ID_86369" fill="none" stroke="#000000" stroke-width="0.0283" d="M240.299-95.097h-41.134v-22.517h21.533v2.165h2.879
			v-2.165h16.722V-95.097z"/>
		<path id="ID_8636A" fill="none" stroke="#000000" stroke-width="0.0283" d="M240.299-117.614h-16.722v-0.715h-2.879v0.715h-21.54
			l-0.003-22.516h41.144V-117.614z"/>
		<path id="ID_8636B" fill="none" stroke="#000000" stroke-width="0.0283" d="M240.299-140.13h-41.144v-19.744h41.144V-140.13z"/>
		<path id="ID_8636C" fill="none" stroke="#000000" stroke-width="0.0283" d="M240.299-159.874h-41.144v-21.287h21.543v1.542h2.879
			v-1.542h16.722V-159.874z"/>
		<path id="ID_8636D" fill="none" stroke="#000000" stroke-width="0.0283" d="M240.299-181.161h-16.722v-1.337h-2.879v1.337h-21.543
			v-21.287h41.134L240.299-181.161z"/>
		<path id="ID_8636E" fill="none" stroke="#000000" stroke-width="0.0283" d="M240.289-202.448h-41.134l-0.006-21.287h21.549v1.337
			h2.879v-1.337h16.712V-202.448z"/>
		<path id="ID_8636F" fill="none" stroke="#000000" stroke-width="0.0283" d="M240.289-223.735h-16.712v-1.542l-2.879-0.001v1.543
			H199.15l-0.014-31.159l41.154,0.001L240.289-223.735z"/>
		<path id="ID_86370" fill="none" stroke="#000000" stroke-width="0.0283" d="M240.268-268.263h-41.134v-19.744h41.134V-268.263z"/>
		<path id="ID_86371" fill="none" stroke="#000000" stroke-width="0.0283" d="M240.268-288.008h-41.134l-0.002-21.75h21.566v1.8
			h2.879v-1.8h16.69V-288.008z"/>
		<path id="ID_86372" fill="none" stroke="#000000" stroke-width="0.0283" d="M240.268-309.758h-16.69v-1.079h-2.879v1.079h-21.564
			v-21.75h41.134V-309.758z"/>
		<path id="ID_86373" fill="none" stroke="#000000" stroke-width="0.0283" d="M199.134-331.508h41.134v-19.744h-41.134V-331.508z"/>
		<path id="ID_86374" fill="none" stroke="#000000" stroke-width="0.0283" d="M240.268-351.252h-41.134v-21.338h21.564v0.463h2.879
			v-0.463h16.69V-351.252z"/>
		<path id="ID_86375" fill="none" stroke="#000000" stroke-width="0.0283" d="M240.268-372.59h-16.69v-2.417h-2.879v2.417h-21.564
			v-21.339h41.134V-372.59z"/>
		<path id="ID_86376" fill="none" stroke="#000000" stroke-width="0.0283" d="M240.268-393.928h-41.133v-21.178h2.193v-0.623h19.37
			h2.879h16.69V-393.928z"/>
		<path id="ID_86377" fill="none" stroke="#000000" stroke-width="0.0283" d="M240.268-415.729h-16.69v-2.88h-2.879v2.88h-19.37
			v-3.492h-2.194l0.002-18.31h41.132V-415.729z"/>
		<path id="ID_86378" fill="none" stroke="#000000" stroke-width="0.0283" d="M240.268-437.531h-41.134v-19.532h2.217v-3.503h19.348
			v2.88h2.879v-2.88h16.69V-437.531z"/>
		<path id="ID_86379" fill="none" stroke="#000000" stroke-width="0.0283" d="M279.742-439.195h39.884v-21.371h-39.884V-439.195z"/>
		<path id="ID_8637A" fill="none" stroke="#000000" stroke-width="0.0283" d="M279.742-439.195h39.884v18.489h-0.351v0.021h-39.533
			V-439.195z"/>
		<path id="ID_8637B" fill="none" stroke="#000000" stroke-width="0.0283" d="M279.78-419.226h20.567v12.341H279.78V-419.226z"/>
		<path id="ID_8637C" fill="none" stroke="#000000" stroke-width="0.0283" d="M279.742-402.772h37.021v18.511h-37.021V-402.772z"/>
		<path id="ID_8637D" fill="none" stroke="#000000" stroke-width="0.0283" d="M279.742-384.261h37.021v18.51h-37.021V-384.261z"/>
		<path id="ID_8637E" fill="none" stroke="#000000" stroke-width="0.0283" d="M316.763-365.752h-37.021v18.1h4.113v0.411h32.907
			V-365.752z"/>
		<path id="ID_8637F" fill="none" stroke="#000000" stroke-width="0.0283" d="M417.747-344.156h30.963v-20.679h-1.096v-4.094h1.096
			v-16.361h-37.39v37.638h0.874v3.496h2.674v-2.879h2.879V-344.156z"/>
		<path id="ID_86380" fill="none" stroke="#000000" stroke-width="0.0283" d="M448.71-385.29h19.993l0.579,0.304l0.518,0.271v40.559
			h-21.09v-20.679h2.997v-4.094h-2.997V-385.29z"/>
		<path id="ID_86381" fill="none" stroke="#000000" stroke-width="0.0283" d="M474.718-343.539h12.341v-20.567h-12.341V-343.539z"/>
		<path id="ID_86382" fill="none" stroke="#000000" stroke-width="0.0283" d="M408.081-344.156h-22.933v-41.134h19.744h6.428v17.984
			v19.653h-3.239V-344.156z"/>
		<path id="ID_86383" fill="none" stroke="#000000" stroke-width="0.0283" d="M385.149-344.156h-22.366v-41.134h22.366V-344.156z"/>
		<path id="ID_86384" fill="none" stroke="#000000" stroke-width="0.0283" d="M340.415-344.156h18.922v-2.879h2.879v2.879h0.566
			v-41.134h-22.367V-344.156z"/>
		<path id="ID_8638F" fill="none" stroke="#000000" stroke-width="0.0283" d="M533.746-207.376v-18.313h2.879v-1.432h38.255v1.432
			h1.748v18.313H533.746"/>
		<path id="ID_86390" fill="none" stroke="#000000" stroke-width="0.0283" d="M619.511-89.329h-42.883v-17.901h1.132v-1.017h21.184
			h16.454v1.633h4.113V-89.329z"/>
		<path id="ID_86391" fill="none" stroke="#000000" stroke-width="0.0283" d="M619.511-110.727h-4.113v2.48H577.76v-1.863h-1.132
			v-5.871v-12.022h42.883V-110.727z"/>
		<path id="ID_86392" fill="none" stroke="#000000" stroke-width="0.0283" d="M619.511-128.004h-42.883v-19.744h42.883V-128.004z"/>
		<path id="ID_86393" fill="none" stroke="#000000" stroke-width="0.0283" d="M619.511-188.043v18.091h-4.113v2.057H577.76v-1.439
			h-1.132v-18.708H619.511"/>
		<path id="ID_86395" fill="none" stroke="#000000" stroke-width="0.0283" d="M576.628-147.748h42.883v-18.091h-4.113v-2.057H577.76
			v1.439h-1.132V-147.748"/>
		<path id="ID_86398" fill="none" stroke="#000000" stroke-width="0.0283" d="M619.511-207.788v-17.284h-4.113v-1.226H577.76v0.608
			h-1.132v17.901H619.511"/>
		<path id="ID_86399" fill="none" stroke="#000000" stroke-width="0.0283" d="M658.588-187.639v18.305h1.44v1.439h39.694v-19.744
			H658.588"/>
		<path id="ID_8639A" fill="none" stroke="#000000" stroke-width="0.0283" d="M699.723-167.895h-39.694v1.439h-1.44v18.305h41.135
			V-167.895"/>
		<path id="ID_8639B" fill="none" stroke="#000000" stroke-width="0.0283" d="M699.723-148.151h-41.135v19.744h41.135V-148.151"/>
		<path id="ID_8639C" fill="none" stroke="#000000" stroke-width="0.0283" d="M699.723-187.639h-41.135v-19.745h41.135V-187.639z"/>
		<path id="ID_8639D" fill="none" stroke="#000000" stroke-width="0.0283" d="M658.588-207.385h41.135v-19.744h-39.694v1.439h-1.44
			V-207.385z"/>
		<path id="ID_8639E" fill="none" stroke="#000000" stroke-width="0.0283" d="M658.588-245.433h1.44v-1.439h39.694v19.744h-39.694
			v-1.439h-1.44V-245.433z"/>
		<path id="ID_8639F" fill="none" stroke="#000000" stroke-width="0.0283" d="M691.496-109.896v-18.511h-32.908v18.305h1.465v0.206
			H691.496"/>
		<path id="ID_863A0" fill="none" stroke="#000000" stroke-width="0.0283" d="M760.793,9.437h-19.744v-41.135h19.744V9.437z"/>
		<path id="ID_863A1" fill="none" stroke="#000000" stroke-width="0.0283" d="M741.049,9.437h-19.744v-41.135h19.744V9.437z"/>
		<path id="ID_863A2" fill="none" stroke="#000000" stroke-width="0.0283" d="M406.44-214.385v-8.227h2.466v-1.646h4.111v-22.035
			h3.642l0.002-2.88h9.95v3.95h50.135v-3.291h9.05v3.291h5.774v2.56h2.468v8.227h-2.468v4.428h-5.334v16.449h-77.33v-0.826H406.44"
			/>
		<path id="ID_863A3" fill="none" stroke="#000000" stroke-width="0.0283" d="M491.172-284.305h-4.113v-4.113h4.113V-284.305z"/>
		<path id="ID_863A4" fill="none" stroke="#000000" stroke-width="0.0283" d="M491.172-288.419h-4.113v-3.423h4.113V-288.419z"/>
		<path id="ID_863A5" fill="none" stroke="#000000" stroke-width="0.0283" d="M494.04-265.627h-2.474v-6.746h2.474V-265.627z"/>
		<path id="ID_863A6" fill="none" stroke="#000000" stroke-width="0.0283" d="M487.881-247.69h4.511v-16.291h-2.471v-8.392
			l-2.04,0.001V-247.69"/>
		<path id="ID_863A7" fill="none" stroke="#000000" stroke-width="0.0283" d="M408.081-284.305h4.113v-4.113h-4.113V-284.305z"/>
		<path id="ID_863A8" fill="none" stroke="#000000" stroke-width="0.0283" d="M414.868-284.923h2.879v-2.879h-2.879V-284.923z"/>
		<path id="ID_863A9" fill="none" stroke="#000000" stroke-width="0.0283" d="M408.081-274.427l51.407-0.002v-18.092h-51.407v4.103
			h4.113v2.057h2.674v-1.439h2.879v2.879h-2.879v-1.439h-2.674v2.057h-4.113v1.036h-1.646l0.002,5.759h1.644V-274.427"/>
		<path id="ID_863AA" fill="none" stroke="#000000" stroke-width="0.0283" d="M435.448-247.69h-3.281v-25.093h3.281V-247.69z"/>
		<path id="ID_863AB" fill="none" stroke="#000000" stroke-width="0.0283" d="M411.599-248.76h-3.518v-24.021h3.518V-248.76z"/>
		<path id="ID_863AC" fill="none" stroke="#000000" stroke-width="0.0283" d="M408.081-229.185h4.113v-17.93h-4.113V-229.185z"/>
		<path id="ID_863AD" fill="none" stroke="#000000" stroke-width="0.0283" d="M476.745-271.55h9.05v-3.702h0.44v-16.446h-14.407
			v-2.465h-9.05v2.465h-0.822v16.445h14.789V-271.55"/>
		<path id="ID_863AE" fill="none" stroke="#000000" stroke-width="0.0283" d="M487.059-274.017h5.333l0.001-18.503h-5.334v0.679
			l4.113,0.342v7.194h-4.113V-274.017"/>
		<path id="ID_863AF" fill="none" stroke="#000000" stroke-width="0.0283" d="M487.059-212.737h5.333v-16.448h-1.22v4.113h-4.113
			V-212.737"/>
		<path id="ID_863B0" fill="none" stroke="#000000" stroke-width="0.0283" d="M279.742-9.531h41.237v-19.745h-41.237V-9.531z"/>
		<path id="ID_863B1" fill="none" stroke="#000000" stroke-width="0.0283" d="M320.98-29.276h41.236v19.745H320.98V-29.276z"/>
		<path id="ID_863B2" fill="none" stroke="#000000" stroke-width="0.0283" d="M279.742-29.276h41.237v-18.713h-1.132v-1.031h-35.992
			v1.648h-4.113V-29.276z"/>
		<path id="ID_863B3" fill="none" stroke="#000000" stroke-width="0.0283" d="M320.98-47.989h1.748v-1.031h36.609v1.031h2.879
			v18.713H320.98V-47.989z"/>
		<path id="ID_863B4" fill="none" stroke="#000000" stroke-width="0.0283" d="M279.742,7.747h4.138v2.876l35.764,0.001V8.158h1.336
			V-9.531h-41.237V7.747z"/>
		<path id="ID_863B5" fill="none" stroke="#000000" stroke-width="0.0283" d="M320.98-9.531h41.236V8.158h-3.083v2.467
			l-36.198-0.001V8.158h-1.955V-9.531z"/>
		<path id="ID_863B6" fill="none" stroke="#000000" stroke-width="0.0283" d="M240.299-31.639h-41.134v-19.745h41.134V-31.639z"/>
		<path id="ID_863B7" fill="none" stroke="#000000" stroke-width="0.0283" d="M240.299-51.385h-41.134v-21.856h21.524v1.389h2.88
			v-1.389h16.729V-51.385z"/>
		<path id="ID_863BB" fill="none" stroke="#000000" stroke-width="0.0283" d="M199.165-31.639v18.51h21.533v-1.541h2.879v2.88
			h-2.879v-1.339h-21.533v6.475h41.134v-6.475v-18.51H199.165"/>
		<path id="ID_863CF" fill="none" stroke="#000000" stroke-width="0.0283" d="M319.626-385.29v-31.323h-0.351v-4.072H279.78v1.459
			h20.567v12.341h-16.491v4.113h32.907v17.482H319.626"/>
		<path id="ID_863D0" fill="none" stroke="#000000" stroke-width="0.0283" d="M535.406-340.094l6.454,1.771l0.209-0.762l5.95,1.633
			l-0.209,0.762l27.263,7.484l4.899-17.851l-39.667-10.889L535.406-340.094"/>
		<path id="ID_863D1" fill="none" stroke="#000000" stroke-width="0.0283" d="M584.872-364.905l-39.667-10.889l-4.9,17.85
			l39.667,10.889L584.872-364.905"/>
		<path id="ID_863D2" fill="none" stroke="#000000" stroke-width="0.0283" d="M660.645-279.698h-41.134v-19.745h41.134V-279.698z"/>
		<path id="ID_863D3" fill="none" stroke="#000000" stroke-width="0.0283" d="M660.645-279.698h41.135v-19.745h-41.135V-279.698z"/>
		<path id="ID_863D4" fill="none" stroke="#000000" stroke-width="0.0283" d="M701.78-279.698l36.36,6.96l3.48-18.181l-36.361-6.96
			L701.78-279.698"/>
		<path id="ID_863D5" fill="none" stroke="#000000" stroke-width="0.0283" d="M745.513-275.215l3.957,1.136l1.128-3.949
			l-3.949-1.136L745.513-275.215"/>
		<path id="ID_863D6" fill="none" stroke="#000000" stroke-width="0.0283" d="M748.631-285.992l3.949,1.136l1.133-3.95l-3.955-1.135
			L748.631-285.992"/>
		<path id="ID_863D7" fill="none" stroke="#000000" stroke-width="0.0283" d="M776.614-270.436l5.95,1.633l1.089-3.967l-5.95-1.633
			L776.614-270.436"/>
		<path id="ID_863D8" fill="none" stroke="#000000" stroke-width="0.0283" d="M777.886-266.494l2.772,0.789l0.79-2.764l-2.765-0.79
			L777.886-266.494"/>
		<path id="ID_863D9" fill="none" stroke="#000000" stroke-width="0.0283" d="M821.432-307.404l21.815,5.987l9.799-35.701
			l-21.817-5.987L821.432-307.404"/>
		<path id="ID_863DA" fill="none" stroke="#000000" stroke-width="0.0283" d="M803.581-312.302l17.851,4.898l9.797-35.701
			l-17.851-4.898L803.581-312.302"/>
		<path id="ID_863DB" fill="none" stroke="#000000" stroke-width="0.0283" d="M847.58-310.984l17.612,4.836l-0.108,0.396
			l13.186,3.621l2.377-8.66l7.141,1.96l1.133,0.327l5.023-17.389l-39.311-10.789L847.58-310.984"/>
		<path id="ID_863DC" fill="none" stroke="#000000" stroke-width="0.0283" d="M879.966-302.092l3.569,0.979l1.724-6.28l-3.568-0.979
			L879.966-302.092"/>
		<path id="ID_863DD" fill="none" stroke="#000000" stroke-width="0.0283" d="M834.93-263.354l15.232,4.182l6.099-22.213
			l-15.232-4.182L834.93-263.354"/>
		<path id="ID_863DE" fill="none" stroke="#000000" stroke-width="0.0283" d="M856.566-282.496l6.099-22.214l-15.231-4.182
			l-6.099,22.213L856.566-282.496"/>
		<path id="ID_863DF" fill="none" stroke="#000000" stroke-width="0.0283" d="M864.572-250.558l0.645-2.348l4.702,1.291
			l-0.676,2.339L864.572-250.558"/>
		<path id="ID_863E0" fill="none" stroke="#000000" stroke-width="0.0283" d="M862.292-246.919l5.95,1.634l1.089-3.967l-5.95-1.634
			L862.292-246.919"/>
		<path id="ID_863E1" fill="none" stroke="#000000" stroke-width="0.0283" d="M838.23-249.061l2.765,0.79l0.798-2.765l-2.772-0.798
			L838.23-249.061"/>
		<path id="ID_863E2" fill="none" stroke="#000000" stroke-width="0.0283" d="M821.784-192.156l0.79-2.772l2.772,0.798l-0.798,2.764
			L821.784-192.156"/>
		<path id="ID_863E3" fill="none" stroke="#000000" stroke-width="0.0283" d="M673.421-48.013l3.95,1.133l1.135-3.955l-3.957-1.136
			L673.421-48.013"/>
		<path id="ID_863E4" fill="none" stroke="#000000" stroke-width="0.0283" d="M679.74-47.586l3.949,1.133l1.135-3.955l-3.959-1.128
			L679.74-47.586"/>
		<path id="ID_863E5" fill="none" stroke="#000000" stroke-width="0.0283" d="M712.113-38.882l2.772,0.798l0.789-2.772l-2.762-0.798
			L712.113-38.882"/>
		<path id="ID_863E6" fill="none" stroke="#000000" stroke-width="0.0283" d="M728.558-95.787l0.798-2.765l2.765,0.79l-0.79,2.772
			L728.558-95.787"/>
		<path id="ID_863E7" fill="none" stroke="#000000" stroke-width="0.0283" d="M745.003-152.692l2.765,0.798l0.799-2.772l-2.773-0.79
			L745.003-152.692"/>
		<path id="ID_863E8" fill="none" stroke="#000000" stroke-width="0.0283" d="M712.622-161.404l3.957,1.135l1.136-3.957
			l-3.957-1.127L712.622-161.404"/>
		<path id="ID_863E9" fill="none" stroke="#000000" stroke-width="0.0283" d="M761.448-209.597l0.79-2.764l2.772,0.789l-0.798,2.772
			L761.448-209.597"/>
		<path id="ID_863EA" fill="none" stroke="#000000" stroke-width="0.0283" d="M729.068-218.309l3.957,1.135l1.136-3.957
			l-3.957-1.127L729.068-218.309"/>
		<path id="ID_863EB" fill="none" stroke="#000000" stroke-width="0.0283" d="M686.387-92.899l3.957,1.135l1.136-3.957l-3.958-1.135
			L686.387-92.899"/>
		<path id="ID_863EC" fill="none" stroke="#000000" stroke-width="0.0283" d="M696.185-104.5l1.128-3.948l3.957,1.127l-1.136,3.957
			L696.185-104.5"/>
		<path id="ID_863ED" fill="none" stroke="#000000" stroke-width="0.0283" d="M691.865-111.862l3.958,1.135l1.135-3.957
			l-3.957-1.127L691.865-111.862"/>
		<path id="ID_863EE" fill="none" stroke="#000000" stroke-width="0.0283" d="M678.014-9.221l18.977,5.455L708.355-43.3
			l-18.976-5.455L678.014-9.221"/>
		<path id="ID_863EF" fill="none" stroke="#000000" stroke-width="0.0283" d="M650.385,0.343h8.779v-0.822h4.113v0.822h1.504
			v-59.805h-14.396V0.343"/>
		<path id="ID_863F0" fill="none" stroke="#000000" stroke-width="0.0283" d="M665.798-97.556h20.567v-12.34h-20.567V-97.556z"/>
		<path id="ID_863F1" fill="none" stroke="#000000" stroke-width="0.0283" d="M696.733-91.502l3.401-11.862l19.771,5.669
			l-3.401,11.862L696.733-91.502"/>
		<path id="ID_863F2" fill="none" stroke="#000000" stroke-width="0.0283" d="M596.435-10.762h23.438v-36.198h-4.886v-4.937h-18.552
			V-10.762"/>
		<path id="ID_863F3" fill="none" stroke="#000000" stroke-width="0.0283" d="M574.88-10.762h21.555v-41.135h-19.744v0.999h1.069
			v2.88h-2.88V-10.762"/>
		<path id="ID_863F4" fill="none" stroke="#000000" stroke-width="0.0283" d="M533.746-29.302h41.134v-18.717v-1.028h-38.255v1.058
			h-2.879V-29.302"/>
		<path id="ID_863F7" fill="none" stroke="#000000" stroke-width="0.0283" d="M817.096-217.068l39.543,11.428l8.219-28.453
			l-39.539-11.427L817.096-217.068"/>
		<path id="ID_863F8" fill="none" stroke="#000000" stroke-width="0.0283" d="M856.639-205.64l-39.543-11.428l-5.481,18.969
			l39.545,11.428L856.639-205.64L856.639-205.64"/>
		<path id="ID_863F9" fill="none" stroke="#000000" stroke-width="0.0283" d="M811.615-198.099l10.96,3.171l-0.79,2.772l2.765,0.789
			l0.798-2.764l6.04,1.745l-4.605,16.001l-19.76-5.71L811.615-198.099"/>
		<path id="ID_863FA" fill="none" stroke="#000000" stroke-width="0.0283" d="M806.153-156.056l6.44-22.287l15.807,4.567
			l-6.44,22.288L806.153-156.056"/>
		<path id="ID_863FB" fill="none" stroke="#000000" stroke-width="0.0283" d="M823.936-150.918l6.439-22.287l15.808,4.567
			l-6.44,22.288L823.936-150.918"/>
		<path id="ID_863FC" fill="none" stroke="#000000" stroke-width="0.0283" d="M804.063-156.232l-9.308-2.689l2.329-8.062
			l-2.371-0.686l4.34-15.017l11.678,3.375L804.063-156.232"/>
		<path id="ID_863FE" fill="none" stroke="#000000" stroke-width="0.0283" d="M790.803-160.063l2.371,0.685l1.872-6.48l-2.37-0.686
			L790.803-160.063"/>
		<path id="ID_863FF" fill="none" stroke="#000000" stroke-width="0.0283" d="M779.612-121.337l2.513-8.693l2.371,0.685l3.3-11.41
			l0.788,0.228l7.903,2.284l3.161,0.913l-0.569,1.974l3.161,0.913l-2.522,8.691l-3.159-0.912l-2.946,10.23l-11.856-3.427
			l0.229-0.789L779.612-121.337"/>
		<path id="ID_86400" fill="none" stroke="#000000" stroke-width="0.0283" d="M817.789-81.346l-22.129-6.396l9.639-33.355
			l10.669,3.083l-0.667,2.309l11.465,3.314L817.789-81.346"/>
		<path id="ID_86401" fill="none" stroke="#000000" stroke-width="0.0283" d="M782.224-88.201l10.152,2.934l2.218-7.675
			l-10.152-2.934L782.224-88.201"/>
		<path id="ID_86402" fill="none" stroke="#000000" stroke-width="0.0283" d="M789.359-95.568l5.532,1.599l1.861-6.442l-5.532-1.599
			L789.359-95.568"/>
		<path id="ID_86403" fill="none" stroke="#000000" stroke-width="0.0283" d="M788.33-95.865l5.207-18.019l-3.592-1.038
			l-5.207,18.019L788.33-95.865"/>
		<path id="ID_86404" fill="none" stroke="#000000" stroke-width="0.0283" d="M791.517-103.038l5.532,1.599l5.193-17.972
			l-4.803-1.389l-2.145,7.424l-0.73-0.211L791.517-103.038"/>
		<path id="ID_86405" fill="none" stroke="#000000" stroke-width="0.0283" d="M766.582-31.698l5.482-18.968l39.516,11.42
			l-5.48,18.968L766.582-31.698"/>
		<path id="ID_86406" fill="none" stroke="#000000" stroke-width="0.0283" d="M811.58-39.247l-39.517-11.42l8.223-28.452
			l39.515,11.42L811.58-39.247"/>
		<path id="ID_86407" fill="none" stroke="#000000" stroke-width="0.0283" d="M699.723-201.665l9.822-35.694l17.848,4.912
			l-9.823,35.693L699.723-201.665"/>
		<path id="ID_86408" fill="none" stroke="#000000" stroke-width="0.0283" d="M714.188-183.865l39.518,11.421l5.481-18.968
			l-39.517-11.422L714.188-183.865"/>
		<path id="ID_8640A" fill="none" stroke="#000000" stroke-width="0.0283" d="M62.718-1.65H52.054V-26.8h0.751v-2.468h-0.751
			v-11.968h10.664V-1.65"/>
		<path id="ID_8640B" fill="none" stroke="#000000" stroke-width="0.0283" d="M53.653,13.512h2.106V36.87l146.27-0.958V12.267
			h-4.509v-1.234l-15.487,0.417v2.057h-4.114v-2.057h-65.032v2.062h-4.114V9.399h4.114v2.051h65.032V9.393h4.114l0.055,2.056
			l15.433-0.416V9.798V-4.187v-18.523l-16.376-5.322v1.233h-2.468v-1.233h-66.638v1.233h-2.468v-2.468h2.468v1.234h66.638v-1.234
			h2.468v1.234l16.376,5.322v-18.524H64.364V-1.65h-1.646H52.054V9.399h1.599V13.512"/>
		<path id="ID_8640C" fill="none" stroke="#000000" stroke-width="0.0283" d="M209.845,9.798v0.823h-10.68V9.798h-1.646V-4.187
			h1.646V-5.01l10.68-0.001v0.823h1.646V-5.01l9.887,0.001v15.02h-0.679v0.612h-9.208V9.798H209.845"/>
		<path id="ID_8640E" fill="none" stroke="#000000" stroke-width="0.0283" d="M554.313-274.227h-20.566v-10.695h2.879v-1.646h17.688
			V-274.227z"/>
		<path id="ID_8640F" fill="none" stroke="#000000" stroke-width="0.0283" d="M554.313-286.568h20.567v12.341h-20.567V-286.568z"/>
		<path id="ID_86410" fill="none" stroke="#000000" stroke-width="0.0283" d="M533.746-286.568h41.134v-19.744h-41.134V-286.568z"/>
		<path id="ID_86411" fill="none" stroke="#000000" stroke-width="0.0283" d="M574.88-306.312h-41.134v-19.744h41.134V-306.312z"/>
		<path id="ID_86412" fill="none" stroke="#000000" stroke-width="0.0283" d="M596.068-279.698H574.88v-5.225h2.88v-2.879h-2.88
			v-33.031h21.188V-279.698z"/>
		<path id="ID_86413" fill="none" stroke="#000000" stroke-width="0.0283" d="M596.068-320.833h19.33v3.562h0.414v28.852h-0.414
			l0.002,7.486h0.412v1.234h-19.744V-320.833z"/>
		<path id="ID_86414" fill="none" stroke="#000000" stroke-width="0.0283" d="M702.884-144.749l39.517,11.423l5.367-18.568
			l-2.765-0.798l0.285-0.992l-28.255-8.167l-0.454,1.582l-3.957-1.135l0.457-1.59l-4.542-1.312L702.884-144.749"/>
		<path id="ID_86415" fill="none" stroke="#000000" stroke-width="0.0283" d="M753.704-172.444l-5.139,17.777l-2.772-0.79
			l-0.512,1.771l-28.248-8.165l0.682-2.375l-3.955-1.137l-0.684,2.368l-4.541-1.312l5.652-19.558L753.704-172.444"/>
		<path id="ID_86419" fill="none" stroke="#000000" stroke-width="0.0283" d="M723.622-201.691l5.346-18.496l0.59,0.171l-0.49,1.707
			l3.957,1.135l0.486-1.699l28.255,8.166l-0.317,1.11l2.764,0.798l-5.025,17.388L723.622-201.691"/>
		<path id="ID_8641A" fill="none" stroke="#000000" stroke-width="0.0283" d="M734.31-238.683l35.565,10.277l-4.864,16.834
			l-2.771-0.792l-0.474,1.656l-28.255-8.166l0.649-2.258l-3.957-1.127l-0.646,2.242l-0.593-0.171L734.31-238.683"/>
		<path id="ID_8641E" fill="none" stroke="#000000" stroke-width="0.0283" d="M701.696-125.824l35.564,10.28l5.141-17.782
			l-35.565-10.28L701.696-125.824"/>
		<path id="ID_8641F" fill="none" stroke="#000000" stroke-width="0.0283" d="M696.555-108.042l0.593,0.171l0.164-0.577l3.955,1.135
			l-0.168,0.585l31.021,8.967l5.14-17.782l-35.564-10.28L696.555-108.042"/>
		<path id="ID_86420" fill="none" stroke="#000000" stroke-width="0.0283" d="M855.292-255.631l7.925,2.176l0.662-2.378l3.715,1.024
			l0.683,0.05l0.392-0.058l0.408-0.133l0.496-0.282l0.404-0.372l0.346-0.519l0.161-0.414l11.395-39.446l0.097-0.685l-0.059-0.536
			l-0.197-0.558l-0.473-0.657l-0.795-0.529l-0.291-0.1l-12.557-3.453l-0.654-0.089l-0.675,0.095l-0.577,0.247l-0.545,0.435
			l-0.459,0.69l-0.124,0.349l-1.067,3.887l-2.776-0.763l-2.613,9.521l2.776,0.763l-3.79,13.804l-2.776-0.763l-2.614,9.52
			l2.776,0.763l-0.784,2.858l-0.078,0.876l0.124,0.578l0.412,0.747l0.452,0.436l0.703,0.363l0.633,0.173L855.292-255.631"/>
		<path id="ID_86421" fill="none" stroke="#000000" stroke-width="0.0283" d="M788.583-140.528l0.913-3.161l-0.79-0.229l3.782-13.09
			l16.224,4.688l0.8-2.767l9.562,2.764l-0.799,2.767l7.745,2.238l0.8-2.767l9.562,2.764l-0.799,2.766l4.536,1.311l-3.782,13.09
			l-38.938-11.251l-0.914,3.161L788.583-140.528"/>
		<path id="ID_86423" fill="none" stroke="#000000" stroke-width="0.0283" d="M472.632-271.55v11.106h-2.402v11.929h6.516
			l9.05,0.002h1.264v-23.037H472.632"/>
		<path id="ID_86424" fill="none" stroke="#000000" stroke-width="0.0283" d="M470.23-248.514h-32.314v-23.035h34.717v11.106h-2.402
			V-248.514L470.23-248.514"/>
		<path id="ID_8642E" fill="none" stroke="#000000" stroke-width="0.0283" d="M343.896-387.346v-73.22h4.284l6.398,4.704
			l5.414,3.915l7.16,5.086l7.656,5.327l4.712,3.223l7.795,5.236l5.699,3.757l2.861,1.864l0.563,0.365l3.658,2.357l2.996,1.912
			l3.415,2.16l4.164,2.605l2.093,1.298l3.007,1.85l2.969,1.811l2.968,1.795l2.172,1.305l2.634,1.569l1.532,0.909l3.446,2.028
			l2.796,1.631l2.85,1.649l2.545,1.461l3.656,2.081l2.582,1.456l2.083,1.167l2.161,1.203l2.607,1.441l3.008,1.65l2.904,1.579
			l2.768,1.492l1.229,0.658l1.259,0.673l-12.874-4.328v-1.439h-2.88v2.88h2.88v-1.44l12.874,4.328h-60.022l6.22-15.426h2.057v-2.057
			h2.674v1.439h2.879v-2.879h-1.439l-4.13-8.572v-2.057h-4.113v4.113h4.113v-2.057l4.13,8.572h-1.439v1.439h-2.674v-2.057h-4.113
			v2.057h-45.865v-1.439h-2.879v2.879h2.879v-1.439h45.865v2.057h2.057l-6.22,15.426H343.896"/>
		<path id="ID_8642F" fill="none" stroke="#000000" stroke-width="0.0283" d="M322.728-403.389h-2.88v-2.879h2.88V-403.389z"/>
		<path id="ID_86430" fill="none" stroke="#000000" stroke-width="0.0283" d="M323.368-416.613h-4.093v-4.093h4.093V-416.613z"/>
		<path id="ID_86432" fill="none" stroke="#000000" stroke-width="0.0283" d="M323.344-385.29v-1.646h-2.072v-16.454h1.456v-2.879
			h-1.456v-10.345h2.097v-4.093h-2.097v-39.86h20.567v73.631h-4.51v1.646H323.344"/>
		<path id="ID_86439" fill="none" stroke="#000000" stroke-width="0.0283" d="M487.042-368.993h4.113v-4.113h-4.113V-368.993z"/>
		<path id="ID_8643A" fill="none" stroke="#000000" stroke-width="0.0283" d="M488.552-365.667l2.686,3.116l3.116-2.685
			l-2.686-3.116L488.552-365.667"/>
		<path id="ID_8643B" fill="none" stroke="#000000" stroke-width="0.0283" d="M540.98-335.117l5.95,1.633l1.089-3.967l-5.95-1.633
			L540.98-335.117"/>
		<path id="ID_8643C" fill="none" stroke="#000000" stroke-width="0.0283" d="M648.091-305.716l5.949,1.633l1.089-3.967
			l-5.949-1.633L648.091-305.716"/>
		<path id="ID_8643D" fill="none" stroke="#000000" stroke-width="0.0283" d="M685.161-299.443h-2.88v-2.879h2.88V-299.443z"/>
		<path id="ID_8643E" fill="none" stroke="#000000" stroke-width="0.0283" d="M794.297-318.795l-4.6-0.559l-4.085-0.517
			l-4.021-0.527l-3.031-0.41l-3.262-0.452l-2.691-0.384l-1.359-0.195l6.804-35.861l24.853,6.821l-0.258,0.962l1.587,0.436
			l-3.155,11.76l-1.587-0.436L794.297-318.795"/>
		<path id="ID_8643F" fill="none" stroke="#000000" stroke-width="0.0283" d="M605.169-359.324l-9.55,27.4l14.493,4.916l6.961,2.268
			l2.003,0.641l2.062,0.654l5.813,1.817l6.018,1.837l5.006,1.493l4.572,1.338l3.441,0.99l4.121,1.166l0.692,0.192l1.981,0.552
			l3.448,0.951l6.669,1.794l4.213,1.106l8.655,2.206l4.744,1.172l3.396,0.812l1.998,0.488l2.139,0.506l0.752,0.176l10.079,2.304
			l6.324,1.385l8.71,1.831l5.311,1.073l8.778,1.704l9.472,1.739l7.084,1.234l6.253,1.042l4.502,0.724l4.942,0.768l23.399,18.273
			l11.373-42.394l-2.158-0.264l-3.959-0.496l-3.502-0.455l-4.68-0.629l-3.429-0.477l-4.073-0.583l-3.683-0.544l-3.522-0.535
			l-1.7-0.264l-1.835-0.287l-3.447-0.552l-6.08-1.005l-8.69-1.512l-3.715-0.673l-8.07-1.517l-5.354-1.048l-7.988-1.627l-4.153-0.875
			l-2.202-0.473l-0.765-0.165l-6.243-1.377l-7.855-1.798l-5.321-1.215l-2-0.478l-7.282-1.847l-6.331-1.614l-5.914-1.553
			l-5.807-1.565l-4.733-1.317l-1.981-0.551l-5.433-1.542l-5.92-1.729l-8.229-2.476l-6.271-1.945l-3.914-1.248l-4.021-1.284
			l-6.855-2.253l-6.75-2.277L605.169-359.324"/>
		<path id="ID_86440" fill="none" stroke="#000000" stroke-width="0.0283" d="M515.064-396.104l-23.518,22.817l-2.285-2.154
			l-1.007-0.835l-1.067-0.82l-1.258-0.888l-1.074-0.695l-1.21-0.721l-1.399-0.708l-3.526-1.84l-2.929-1.505l-7.087-3.696
			l-0.923-0.479l-3.671-1.96l-3.512-1.887l-3.492-1.896l-4.043-2.218l-3.346-1.855l-3.284-1.84l-3.397-1.921l-5.101-2.921
			l-6.33-3.685l-5.047-2.986l-3.827-2.293l-4.576-2.775l-4.447-2.732l-5.913-3.687l-3.83-2.412l-3.333-2.126l-2.713-1.76
			l-0.562-0.367l-5.765-3.767l-4.491-2.976l-6.159-4.143l-6.026-4.122l-6.805-4.739l-4.022-2.843l-3.249-2.32l-2.776-1.999
			l-3.026-2.235l16.597-23.055l0.527,0.385l1.881,1.368l3.338,2.411l1.584,1.136l2.923,2.083l2.91,2.055l1.854,1.301l0.245-0.351
			l3.793,2.638l3.103,2.136l3.037,2.072l4.632,3.126l5.288,3.518l4.789,3.139l3.506,2.271l3.062,1.964l0.568,0.362l4.873,3.085
			l5.218,3.254l5.239,3.217l5.936,3.586l4.523,2.69l5.565,3.262l6.502,3.742l4.862,2.752l6.83,3.798l4.386,2.397l3.518,1.9
			l3.717,1.985l1.177,0.662l1.82,0.926l2.489,1.311l3.187,1.662l3.262,1.684l3.502,1.787l2.485,1.256l3.882,1.941l4.306,2.124
			l2.995,1.459l3.368,1.623L515.064-396.104"/>
		<path id="ID_86441" fill="none" stroke="#000000" stroke-width="0.0283" d="M545.205-375.794l2.417-5.706l5.541,2.324l7.058,2.894
			l4.459,1.789l5.309,2.092l3.383,1.325l6.688,2.594l5.854,2.22l3.188,1.19l1.93,0.712l4.452,1.629l3.287,1.185l1.971,0.703
			l2.61,0.924l0.653,0.189l-9.955,28.564l10.188,3.5l6.665,2.218l4.59,1.495l2.159,0.694l1.959,0.624l2.517,0.796l4.339,1.353
			l2.798,0.859l4.034,1.224l4.942,1.471l2.808,0.822l3.129,0.905l3.388,0.967l3.315,0.932l4.082,1.13l3.883,1.056l5.862,1.56
			l4.08,1.062l5.448,1.387l5.072,1.26l2.546,0.62l1.768,0.422l2,0.479l1.403,0.336l0.752,0.178l4.551,1.059l4.77,1.083l3.41,0.759
			l3.869,0.844l4.427,0.944l3.101,0.648l2.824,0.58l2.584,0.523l5.735,1.135l2.834,0.546l4.057,0.767l4.191,0.771l4.181,0.751
			l3.748,0.655l-0.354,1.851l-36.444-6.976l-3.479,18.181v-19.745h-16.618v-2.879h-2.88v2.879h-21.637l-6.06-6.623l0.544-1.983
			l-5.949-1.633l-1.089,3.967l5.949,1.633l0.545-1.983l6.06,6.623h-41.134v11.024h-3.699v-28.852h3.699v-4.113h-4.113v0.551H574.88
			v-5.224h2.88v-2.88h-2.88v2.879v0.001h-38.255v-2.88h-2.879l2.964-10.799l5.149,1.413l-0.88,3.205l5.95,1.633l0.88-3.205
			l27.263,7.484l9.8-35.7L545.205-375.794"/>
		<path id="ID_86442" fill="none" stroke="#000000" stroke-width="0.0283" d="M643.31-51.897h5.019v52.24L616.634,0.34v7.407h-1.236
			l0.001,1.617H574.88v-20.127h68.43V-51.897"/>
		<path id="ID_86443" fill="none" stroke="#000000" stroke-width="0.0283" d="M491.172,7.747V7.719h-40.723v-18.511h-35.791v2.529
			h2.057v18.889h0.356v1.646h64.622V9.365h5.365V7.747H491.172"/>
		<path id="ID_86444" fill="none" stroke="#000000" stroke-width="0.0283" d="M362.216-49.02h45.865v38.229h6.577v21.447h-2.464
			V7.747h-4.113v2.879l-45.657-0.001V8.158h-0.208V-49.02"/>
		<path id="ID_86446" fill="none" stroke="#000000" stroke-width="0.0283" d="M491.583-47.812h42.163V9.365h-30.197l0,0h-6.746l0,0
			h-5.631V7.719h0.411V-47.812"/>
		<path id="ID_86447" fill="none" stroke="#000000" stroke-width="0.0283" d="M279.742-347.241h-39.475v-113.325h15.544l0,0h6.746
			l0,0h17.185V-347.241"/>
		<path id="ID_86448" fill="none" stroke="#000000" stroke-width="0.0283" d="M316.763-347.241v0.206h3.085h2.88h17.688v-38.255
			h-3.086h-13.985h-3.718h-2.863v19.538l2.513-4.955v-2.047h4.093v4.093h-4.093v-2.046l-2.513,4.955V-347.241"/>
		<path id="ID_86449" fill="none" stroke="#000000" stroke-width="0.0283" d="M469.8-344.156h4.918v-19.95h12.341v16.454h4.113
			l0.065-14.898l-2.686-3.116l3.116-2.685l-0.513-0.642h-4.113v-4.113h2.348l-1.007-0.917l-1.438-1.19l-1.291-0.961l-1.034-0.703
			l-1.431-0.885l-1.672-0.915l-2.007-1.02l-2.711-1.386l-2.037-1.049l-2.204-1.143l-1.754-0.914l-1.005-0.526V-344.156"/>
		<path id="ID_8644A" fill="none" stroke="#000000" stroke-width="0.0283" d="M406.436-294.166h-44.22v-11.94h-82.474v216.777
			h82.474h45.865h83.091h42.574l85.765-0.003v-8.225h46.287h20.567l1.156,0.7l-1.135,3.957l3.957,1.135l1.136-3.957l5.972,1.713
			l-0.719,2.507l19.771,5.669l-11.916,41.45l-15.208-4.372l-4.647-1.333l0.092-0.32l-3.957-1.135l-0.461,1.619l-1.997-0.572
			l0.098-0.34l-3.96-1.128h-7.708v-9.555h-18.51v9.621h-71.638v0.999h-1.811v1.852h-38.255v-1.822h-2.879v3.057h-42.163v-4.085
			h-4.936v4.085h-36.815v-1.234h-31.468v-2.438h-4.113v2.438h-2.057v-2.438h-4.113v2.465h-45.865v-1.849h-2.879v1.849h-36.609
			v-1.849h-2.88v1.849h-35.992v-2.465h-4.113v2.465h-39.443v-298.221h39.443v3.702h4.113v-3.702h32.907v0.206h3.085v2.879h2.88
			v-2.879h17.688v2.879h67.666v0.617h4.113v-0.617h62.523v0.617h16.454l-0.002,49.377l-19.342-0.001h-9.05L406.436-294.166z"/>
		<path id="ID_8644C" fill="none" stroke="#000000" stroke-width="0.0283" d="M362.216-89.329h45.865v-121.766h-1.642l-0.004-83.071
			h-44.22V-89.329"/>
		<path id="ID_8644D" fill="none" stroke="#000000" stroke-width="0.0283" d="M533.746-227.121h-39.709v16.026h-2.865v121.766
			h42.574V-227.121"/>
		<path id="ID_8644E" fill="none" stroke="#000000" stroke-width="0.0283" d="M619.511-226.298h37.638v0.608h1.439v56.354h-1.439
			v2.879h1.439v56.354h-1.415v2.88h2.88v-2.674h5.745v12.34h-46.287V-226.298"/>
		<path id="ID_86452" fill="none" stroke="#000000" stroke-width="0.0283" d="M727.393-232.447l4.641,1.641l-8.414,29.114
			l-3.949-1.142l-16.786,58.085l3.951,1.143l-10.28,35.564l0.593,0.171l-0.963,3.371l3.95,1.133l-2.684,9.358l-5.972-1.714
			l-3.958-1.134l-1.156-0.7v-12.34h5.131v-1.966h0.369l3.958,1.135l1.135-3.957l-3.957-1.127l-1.133,3.949h-0.372v-16.545h8.227
			v-108.952h9.822l-9.822,35.694l0,0l17.847,4.911L727.393-232.447"/>
		<path id="ID_86454" fill="none" stroke="#000000" stroke-width="0.0283" d="M826.781-176.385l19.759,5.704l4.621-15.99
			l-19.788-5.719L826.781-176.385"/>
		<path id="ID_86455" fill="none" stroke="#000000" stroke-width="0.0283" d="M832.403-261.916l-4.92,17.021l17.605,5.088
			l-5.477-8.86l-1.382-0.395l0.79-2.772l2.772,0.798l-0.798,2.765l-1.383-0.396l5.477,8.86l19.77,5.71l3.244-11.228l-5.81-1.595
			l1.089-3.967l0.645-2.348l-0.8-0.22l-7.934-2.179l-3.691-1.014L832.403-261.916"/>
		<path id="ID_86458" fill="none" stroke="#000000" stroke-width="0.0283" d="M716.503-85.833l3.401-11.862l-19.771-5.669
			l0.965-3.364l28.261,8.169l-0.801,2.771l2.771,0.8l38.545-133.417l-35.565-10.277l-2.276,7.877l-4.641-1.641l-18-4.912h-9.67
			v-9.514h-39.694v-1.44h-2.88v2.88h1.439v16.865h-1.439v2.271h-37.638v-6.261H615.4l-0.002,6.261H577.76v-2.271h-2.88v1.439
			h-38.255v-1.439h-2.879v1.447h-39.709l0.002-15.543l-0.002-51.498h-2.867l0.002-48.131l0.065-20.258l3.116-2.685l-3.198-3.758
			v-3.915l23.908-23.196l8.963,4.177l3.855,1.732l4.433,2.029l5.757,2.542l5.193,2.262l4.357,1.862l-2.417,5.706l-9.8,35.7
			l1.305,0.358l-2.964,10.799v54.709h30.851v3.929h-2.973v4.113h4.113v-4.113h-1.141v-3.929h10.283v-5.471h40.932v-1.234h3.699
			v1.234h82.269l36.36,6.96l3.48-18.181l0.083,0.016l0.354-1.851l10.674,1.78l-0.5,1.742l-2.468-0.708l-1.134,3.951l1.958,0.559
			l-1.965,6.834l-1.975-0.568l-1.135,3.947l3.956,1.138l1.128-3.949l-1.957-0.562l1.965-6.834l1.975,0.568l1.133-3.95l-1.481-0.425
			l0.5-1.742l2.597,0.414l4.42,0.688l1.607,1.255l1.303,1.017l2.471,1.931l2.481,1.938l1.669,1.303l2.568,2.006l2.294,1.792
			l1.578,1.232l1.381,1.078l1.669,1.304l1.791,1.398l-2.858-0.784l-1.089,3.967l2.969,0.814l-0.157,0.575l-0.749-0.214l-0.79,2.767
			l2.774,0.79l0.788-2.765l-2.023-0.578l0.164-0.573l2.975,0.816l1.089-3.967l11.373-42.394l8.663,2.47l-0.107,0.392l17.851,4.898
			l21.812,5.986l-15.761,56.523l-2.134-0.617l-18.327,63.417l-9.093-2.628l-15.802,54.692l-2.515,8.693l-0.915,3.165l9.667,2.794
			l-8.179,28.301l2.216,0.64l-2.115,7.318l-13.704,47.421h-5.789h-39.488l-15.042-4.324l7.235-2.461l1.388,0.396l0.798-2.766
			l-2.773-0.793l-0.796,2.765l1.384,0.398l-7.235,2.461l2.092-7.277l-3.768-1.083L716.503-85.833z"/>
		<path id="ID_8645A" fill="none" stroke="#000000" stroke-width="0.0283" d="M669.703,0.343h43.326V0.137h5.388v26.532h39.659
			l6.645-23.668l0.026-0.008l1.136-3.957l0.777,0.222l5.986-20.649l-0.174-0.049l0.787-2.766l2.775,0.79l-0.06,0.206l27.965,8.081
			l0.021,0.005l0.226-0.789l0.602,0.173l1.312-4.538l-39.518-11.42h-5.789V9.437h-39.488v-41.135l-15.042-4.324L696.99-3.766
			l-18.977-5.455l11.365-39.533l-4.647-1.333l-1.043,3.637l-3.949-1.135l0.666-2.338l-1.997-0.572l-1.037,3.615l-3.95-1.133
			l1.125-3.95h-7.708v51.484h2.865V0.343"/>
		<path id="ID_8645B" fill="none" stroke="#000000" stroke-width="0.0283" d="M803.689-312.694l9.691-35.311l-8.889-2.439
			l-9.466,35.28L803.689-312.694"/>
		<path id="ID_8645C" fill="none" stroke="#000000" stroke-width="0.0283" d="M199.135-256.777l0.001,1.883l41.154,0.001
			l-0.022-13.37h-20.566l2.437,0.206h1.439v2.88h-2.879v-2.88h1.439l-2.437-0.206h-20.567v3.26L199.135-256.777"/>
		<path id="ID_8645D" fill="none" stroke="#000000" stroke-width="0.0283" d="M199.134-265.004l-0.004,8.227l-1.641,0.001
			l0.001,0.952h-2.466v10.036h2.47v21.095h-16.146v-0.579h-2.879v0.579l-16.195-0.001l0.001-9.357h18.311v-31.12h0.763v-0.656
			l16.137,0.001v0.823H199.134"/>
		<path id="ID_8645E" fill="none" stroke="#000000" stroke-width="0.0283" d="M178.53-236.108h-16.253v-29.72h16.253V-236.108z"/>
		<path id="ID_8651B" fill="none" stroke="#000000" stroke-width="0.0283" d="M223.577-372.127h-2.879v-2.88h2.879V-372.127z"/>
		<path id="ID_8651C" fill="none" stroke="#000000" stroke-width="0.0283" d="M223.577-415.729h-2.879v-2.88h2.879V-415.729z"/>
		<path id="ID_86535" fill="none" stroke="#000000" stroke-width="0.0283" d="M359.337-403.389h2.879v-2.879h-2.879V-403.389z"/>
		<path id="ID_86536" fill="none" stroke="#000000" stroke-width="0.0283" d="M408.081-402.772h4.113v-4.113h-4.113V-402.772z"/>
		<path id="ID_86537" fill="none" stroke="#000000" stroke-width="0.0283" d="M417.747-403.389h-2.879v-2.879h2.879V-403.389z"/>
		<path id="ID_86538" fill="none" stroke="#000000" stroke-width="0.0283" d="M412.178-412.784h-4.113v-4.113h4.113V-412.784z"/>
		<path id="ID_86539" fill="none" stroke="#000000" stroke-width="0.0283" d="M451.067-390.234h-2.88v-2.88h2.88V-390.234z"/>
		<path id="ID_86A9B" fill="none" stroke="#000000" stroke-width="0.0283" d="M348.18-460.566H223.577v2.88h-2.879v-2.88h-19.348
			l-0.156-2.057h78.548v-3.496h4.113v3.496h52.558v-3.491h4.114v3.491h15.236l1.669,1.202l-3.619,5.006L348.18-460.566z"/>
		<path id="ID_86ACB" fill="none" stroke="#000000" stroke-width="0.0283" d="M368.772-480.693l-13.008,18.07h-15.236v-3.491h-4.114
			v3.491h-52.558v-3.496h-4.113v3.496h-78.548l0.003-38.048l141.403,0.011L368.772-480.693z"/>
	</g>
</g>
</svg>
